<svg width="50" height="38" viewBox="0 0 50 38" fill="none" xmlns="http://www.w3.org/2000/svg">
<path d="M38.75 28.375H40.9375C41.5625 28.375 42.1875 27.75 42.1875 27.125V4.625C42.1875 4 41.5625 3.375 40.9375 3.375H38.75C38.125 3.375 37.5 4 37.5 4.625V27.125C37.5 27.75 38.125 28.375 38.75 28.375ZM20 28.375H22.1875C22.8125 28.375 23.4375 27.75 23.4375 27.125V7.75C23.4375 7.125 22.8125 6.5 22.1875 6.5H20C19.375 6.5 18.75 7.125 18.75 7.75V27.125C18.75 27.75 19.375 28.375 20 28.375ZM29.375 28.375H31.5625C32.1875 28.375 32.8125 27.75 32.8125 27.125V14C32.8125 13.375 32.1875 12.75 31.5625 12.75H29.375C28.75 12.75 28.125 13.375 28.125 14V27.125C28.125 27.75 28.75 28.375 29.375 28.375ZM48.4375 33.0625H4.6875V1.8125C4.6875 0.949219 3.98828 0.25 3.125 0.25H1.5625C0.699219 0.25 0 0.949219 0 1.8125V34.625C0 36.3506 1.39941 37.75 3.125 37.75H48.4375C49.3008 37.75 50 37.0508 50 36.1875V34.625C50 33.7617 49.3008 33.0625 48.4375 33.0625ZM10.625 28.375H12.8125C13.4375 28.375 14.0625 27.75 14.0625 27.125V20.25C14.0625 19.625 13.4375 19 12.8125 19H10.625C10 19 9.375 19.625 9.375 20.25V27.125C9.375 27.75 10 28.375 10.625 28.375Z" fill="#8049BD"/>
</svg>
