<svg width="50" height="50" viewBox="0 0 50 50" fill="none" xmlns="http://www.w3.org/2000/svg">
<path d="M0 31.2435C1.68744 31.1656 3.11527 30.5166 4.28349 29.2965C5.45171 28.0763 6.04881 26.6225 6.04881 24.9351C6.04881 26.6225 6.61994 28.0763 7.78816 29.2965C8.95639 30.5166 10.3842 31.1656 12.0717 31.2435C10.3842 31.3214 8.95639 31.9704 7.78816 33.1906C6.61994 34.4107 6.04881 35.8645 6.04881 37.5519C6.04881 35.8645 5.47767 34.4107 4.28349 33.1906C3.11527 31.9704 1.68744 31.3214 0 31.2435ZM6.04881 12.5519C9.31983 12.3962 12.0976 11.1241 14.3821 8.73573C16.6667 6.34736 17.8089 3.51766 17.8089 0.220673C17.8089 3.51766 18.9512 6.34736 21.2357 8.73573C23.5203 11.1241 26.298 12.3702 29.595 12.5519C27.4403 12.6558 25.4673 13.2529 23.6501 14.3951C21.8588 15.5114 20.4309 17.0171 19.3666 18.8863C18.3281 20.7555 17.8089 22.7544 17.8089 24.9351C17.8089 21.6381 16.6667 18.7825 14.3821 16.3941C12.0976 13.9798 9.31983 12.7077 6.04881 12.5519ZM14.6677 40.5114C17.134 40.4076 19.2368 39.447 20.9502 37.6558C22.6636 35.8645 23.5203 33.7357 23.5203 31.2435C23.5203 33.7357 24.377 35.8645 26.0903 37.6558C27.8037 39.447 29.8806 40.4076 32.3468 40.5114C29.8806 40.6153 27.8037 41.5758 26.0903 43.3671C24.377 45.1584 23.5203 47.2871 23.5203 49.7793C23.5203 47.2871 22.6636 45.1584 20.9502 43.3671C19.2108 41.5758 17.134 40.6412 14.6677 40.5114ZM32.3468 28.2061C34.8131 28.1023 36.8899 27.1418 38.6033 25.3505C40.3167 23.5592 41.1475 21.4304 41.1475 18.9123C41.1475 21.4045 42.0042 23.5332 43.7176 25.3245C45.431 27.1158 47.5337 28.0763 50 28.1802C47.5337 28.284 45.431 29.2446 43.7176 31.0358C42.0042 32.8271 41.1475 34.9559 41.1475 37.4481C41.1475 34.9559 40.2908 32.8271 38.6033 31.0358C36.8899 29.2705 34.8131 28.31 32.3468 28.2061Z" fill="#8049BD"/>
</svg>
