<svg width="50" height="38" viewBox="0 0 50 38" fill="none" xmlns="http://www.w3.org/2000/svg">
<path d="M45.8333 0.25H4.16667C1.86632 0.25 0 1.82471 0 3.76562V27.2031C0 29.144 1.86632 30.7188 4.16667 30.7188H20.8333L19.4444 34.2344H13.1944C12.0399 34.2344 11.1111 35.0181 11.1111 35.9922C11.1111 36.9663 12.0399 37.75 13.1944 37.75H36.8056C37.9601 37.75 38.8889 36.9663 38.8889 35.9922C38.8889 35.0181 37.9601 34.2344 36.8056 34.2344H30.5556L29.1667 30.7188H45.8333C48.1337 30.7188 50 29.144 50 27.2031V3.76562C50 1.82471 48.1337 0.25 45.8333 0.25ZM44.4444 26.0312H5.55556V4.9375H44.4444V26.0312Z" fill="#8049BD"/>
</svg>
